<svg width="64" height="54" viewBox="0 0 64 54" fill="none" xmlns="http://www.w3.org/2000/svg">
<path d="M18.875 28.8742V23.2492H1.875C0.838625 23.2492 0 22.4106 0 21.3742V10.1242C0 9.08787 0.838625 8.24925 1.875 8.24925H18.875V2.62425C18.875 1.93938 19.2485 1.3095 19.8472 0.980002C20.4496 0.652252 21.1784 0.676002 21.757 1.04225L42.382 14.1672C42.9221 14.5115 43.2499 15.1084 43.2499 15.7492C43.2499 16.3901 42.9221 16.987 42.382 17.3312L21.757 30.4562C20.5037 31.247 18.875 30.3496 18.875 28.8742Z" fill="url(#paint0_linear_2556_1361)"/>
<path d="M42.2429 52.9562L21.6179 39.8312C21.0777 39.487 20.75 38.8901 20.75 38.2492C20.75 37.6083 21.0777 37.0115 21.6179 36.6672L42.2429 23.5422C42.8196 23.1778 43.5521 23.1522 44.1526 23.48C44.7514 23.8096 45.1249 24.4395 45.1249 25.1242V30.7492H62.1249C63.1612 30.7492 63.9999 31.5878 63.9999 32.6242V43.8742C63.9999 44.9106 63.1612 45.7492 62.1249 45.7492H45.125V51.3742C45.125 52.8556 43.4925 53.7446 42.2429 52.9562Z" fill="url(#paint1_linear_2556_1361)"/>
<defs>
<linearGradient id="paint0_linear_2556_1361" x1="21.625" y1="30.7502" x2="21.625" y2="0.749876" gradientUnits="userSpaceOnUse">
<stop stop-color="#A93AFF"/>
<stop offset="1" stop-color="#FF81FF"/>
</linearGradient>
<linearGradient id="paint1_linear_2556_1361" x1="42.375" y1="53.2501" x2="42.375" y2="23.2505" gradientUnits="userSpaceOnUse">
<stop stop-color="#A93AFF"/>
<stop offset="1" stop-color="#FF81FF"/>
</linearGradient>
</defs>
</svg>
