<svg width="64" height="49" viewBox="0 0 64 49" fill="none" xmlns="http://www.w3.org/2000/svg">
<path d="M9.375 15C4.20587 15 0 19.2059 0 24.375C0 29.5441 4.20587 33.75 9.375 33.75C14.5441 33.75 18.75 29.5441 18.75 24.375C18.75 19.2059 14.5441 15 9.375 15ZM32 30C26.8309 30 22.625 34.2059 22.625 39.375C22.625 44.5441 26.8309 48.75 32 48.75C37.1691 48.75 41.375 44.5441 41.375 39.375C41.375 34.2059 37.1691 30 32 30ZM50.875 0C43.6386 0 37.75 5.88863 37.75 13.125C37.75 20.3614 43.6386 26.25 50.875 26.25C58.1114 26.25 64 20.3614 64 13.125C64 5.88863 58.1114 0 50.875 0Z" fill="url(#paint0_linear_2556_1398)"/>
<defs>
<linearGradient id="paint0_linear_2556_1398" x1="32" y1="48.75" x2="32" y2="0" gradientUnits="userSpaceOnUse">
<stop stop-color="#5558FF"/>
<stop offset="1" stop-color="#00C0FF"/>
</linearGradient>
</defs>
</svg>
