<svg width="48" height="48" viewBox="0 0 48 48" fill="none" xmlns="http://www.w3.org/2000/svg">
<path d="M24 48C10.7852 48 0 37.2142 0 24C0 10.7851 10.7858 0 24 0C37.2149 0 48 10.7858 48 24C48 37.2148 37.2142 48 24 48Z" fill="url(#paint0_linear_2556_920)"/>
<path d="M35.25 16.9688C34.4734 16.9688 33.8438 16.3391 33.8438 15.5625C33.8438 14.7871 33.2129 14.1562 32.4375 14.1562C31.6621 14.1562 31.0312 14.7871 31.0312 15.5625C31.0312 16.3391 30.4016 16.9688 29.625 16.9688C28.8484 16.9688 28.2188 16.3391 28.2188 15.5625C28.2188 13.2363 30.1113 11.3438 32.4375 11.3438C34.7637 11.3438 36.6562 13.2363 36.6562 15.5625C36.6562 16.3391 36.0266 16.9688 35.25 16.9688Z" fill="url(#paint1_linear_2556_920)"/>
<path d="M18.375 16.9688C17.5984 16.9688 16.9688 16.3391 16.9688 15.5625C16.9688 14.7871 16.3379 14.1562 15.5625 14.1562C14.7871 14.1562 14.1562 14.7871 14.1562 15.5625C14.1562 16.3391 13.5266 16.9688 12.75 16.9688C11.9734 16.9688 11.3438 16.3391 11.3438 15.5625C11.3438 13.2363 13.2363 11.3438 15.5625 11.3438C17.8887 11.3438 19.7812 13.2363 19.7812 15.5625C19.7812 16.3391 19.1516 16.9688 18.375 16.9688Z" fill="url(#paint2_linear_2556_920)"/>
<path d="M24 39.5625C15.4683 39.5625 8.53125 32.5443 8.53125 24C8.53125 23.2234 9.16087 22.5938 9.9375 22.5938H38.0625C38.8391 22.5938 39.4688 23.2234 39.4688 24C39.4688 32.5306 32.5443 39.5625 24 39.5625Z" fill="url(#paint3_linear_2556_920)"/>
<defs>
<linearGradient id="paint0_linear_2556_920" x1="24" y1="48" x2="24" y2="0" gradientUnits="userSpaceOnUse">
<stop stop-color="#FD5900"/>
<stop offset="1" stop-color="#FFDE00"/>
</linearGradient>
<linearGradient id="paint1_linear_2556_920" x1="32.4375" y1="16.9688" x2="32.4375" y2="11.3438" gradientUnits="userSpaceOnUse">
<stop stop-color="#FFE59A"/>
<stop offset="1" stop-color="#FFFFD5"/>
</linearGradient>
<linearGradient id="paint2_linear_2556_920" x1="15.5625" y1="16.9688" x2="15.5625" y2="11.3438" gradientUnits="userSpaceOnUse">
<stop stop-color="#FFE59A"/>
<stop offset="1" stop-color="#FFFFD5"/>
</linearGradient>
<linearGradient id="paint3_linear_2556_920" x1="24" y1="39.5625" x2="24" y2="22.5938" gradientUnits="userSpaceOnUse">
<stop stop-color="#FFE59A"/>
<stop offset="1" stop-color="#FFFFD5"/>
</linearGradient>
</defs>
</svg>
