<svg width="48" height="48" viewBox="0 0 48 48" fill="none" xmlns="http://www.w3.org/2000/svg">
<g clip-path="url(#clip0_2556_941)">
<path d="M24 22.5938C24.7772 22.5938 25.4062 21.9649 25.4062 21.1876V16.9691H38.0619C38.6304 16.9691 39.144 16.6272 39.3609 16.1012C39.5793 15.5753 39.4584 14.971 39.0561 14.5686L34.4255 9.93802L39.0561 5.30744C39.4584 4.90508 39.5793 4.30089 39.3609 3.77488C39.144 3.24897 38.6304 2.90698 38.0619 2.90698H24C23.2227 2.90698 22.5938 3.53592 22.5938 4.31317V21.1874C22.5938 21.9649 23.2227 22.5938 24 22.5938ZM47.577 42.7022L35.8254 31.0443C34.7297 29.9486 32.9541 29.9456 31.8548 31.0376L29.6248 33.2526L24.9843 28.6404C24.45 28.078 23.5502 28.078 23.0157 28.6404L18.3752 33.2526L16.1453 31.0376C15.0459 29.9456 13.2704 29.9486 12.1747 31.0443L0.422969 42.7022C0.00101866 43.096 -0.111383 43.6867 0.113514 44.221C0.338598 44.7554 0.844732 45.0929 1.4073 45.0929H46.5929C47.1553 45.0929 47.6616 44.7554 47.8866 44.221C48.1115 43.6867 47.999 43.096 47.577 42.7022Z" fill="url(#paint0_linear_2556_941)"/>
<path d="M33.8433 29.0623L24.9842 20.2032C24.4499 19.6408 23.5501 19.6408 23.0156 20.2032L12.188 31.031L17.391 36.2338C17.9253 36.7963 18.8251 36.7963 19.3596 36.2338L24.0001 31.6215L28.6406 36.2338C28.8936 36.5151 29.2592 36.6557 29.6248 36.6557C29.9904 36.6557 30.356 36.5151 30.6091 36.2338L35.8121 31.031L33.8433 29.0623Z" fill="url(#paint1_linear_2556_941)"/>
</g>
<defs>
<linearGradient id="paint0_linear_2556_941" x1="24" y1="45.0929" x2="24" y2="2.90717" gradientUnits="userSpaceOnUse">
<stop stop-color="#00B59C"/>
<stop offset="1" stop-color="#9CFFAC"/>
</linearGradient>
<linearGradient id="paint1_linear_2556_941" x1="24" y1="36.6557" x2="24" y2="19.7815" gradientUnits="userSpaceOnUse">
<stop stop-color="#C3FFE8"/>
<stop offset="0.9973" stop-color="#F0FFF4"/>
</linearGradient>
<clipPath id="clip0_2556_941">
<rect width="48" height="48" fill="white"/>
</clipPath>
</defs>
</svg>
