<svg width="53" height="64" viewBox="0 0 53 64" fill="none" xmlns="http://www.w3.org/2000/svg">
<path d="M20.625 64C15.4559 64 11.25 59.7941 11.25 54.625C11.25 53.9933 11.3141 53.3634 11.4386 52.75H1.875C0.838625 52.75 0 51.9114 0 50.875V38.4966C0 37.8265 0.358875 37.2075 0.939375 36.8725C1.518 36.5374 2.23387 36.5356 2.81625 36.8744C3.66212 37.365 4.63438 37.625 5.625 37.625C8.72675 37.625 11.25 35.1017 11.25 32C11.25 28.8983 8.72675 26.375 5.625 26.375C4.63438 26.375 3.66212 26.635 2.81612 27.1257C2.23562 27.4626 1.51975 27.4609 0.93925 27.1276C0.358875 26.7925 0 26.1736 0 25.5034V13.125C0 12.0886 0.838625 11.25 1.875 11.25H11.4386C11.3141 10.6366 11.25 10.0068 11.25 9.375C11.25 4.20587 15.4559 0 20.625 0C25.7941 0 30 4.20587 30 9.375C30 10.0068 29.9359 10.6366 29.8114 11.25H39.375C40.4114 11.25 41.25 12.0886 41.25 13.125V22.8136C41.8634 22.6891 42.4933 22.625 43.125 22.625C48.2941 22.625 52.5 26.8309 52.5 32C52.5 37.1691 48.2941 41.375 43.125 41.375C42.4933 41.375 41.8634 41.3109 41.25 41.1864V50.875C41.25 51.9114 40.4114 52.75 39.375 52.75H29.8114C29.9359 53.3634 30 53.9933 30 54.625C30 59.7941 25.7941 64 20.625 64Z" fill="url(#paint0_linear_2556_1385)"/>
<defs>
<linearGradient id="paint0_linear_2556_1385" x1="26.25" y1="64" x2="26.25" y2="0" gradientUnits="userSpaceOnUse">
<stop stop-color="#FD3A84"/>
<stop offset="1" stop-color="#FFA68D"/>
</linearGradient>
</defs>
</svg>
